<svg width="24" height="24" viewBox="0 0 24 24" fill="none" xmlns="http://www.w3.org/2000/svg">
<path d="M3.6001 5.99998C3.6001 5.36346 3.85295 4.75301 4.30304 4.30292C4.75313 3.85283 5.36358 3.59998 6.0001 3.59998H18.0001C18.6366 3.59998 19.2471 3.85283 19.6972 4.30292C20.1472 4.75301 20.4001 5.36346 20.4001 5.99998V18C20.4001 18.6365 20.1472 19.2469 19.6972 19.697C19.2471 20.1471 18.6366 20.4 18.0001 20.4H6.0001C5.36358 20.4 4.75313 20.1471 4.30304 19.697C3.85295 19.2469 3.6001 18.6365 3.6001 18V5.99998ZM6.0001 4.79998C5.68184 4.79998 5.37661 4.9264 5.15157 5.15145C4.92653 5.37649 4.8001 5.68172 4.8001 5.99998V18C4.8001 18.3182 4.92653 18.6235 5.15157 18.8485C5.37661 19.0735 5.68184 19.2 6.0001 19.2H18.0001C18.3184 19.2 18.6236 19.0735 18.8486 18.8485C19.0737 18.6235 19.2001 18.3182 19.2001 18V5.99998C19.2001 5.68172 19.0737 5.37649 18.8486 5.15145C18.6236 4.9264 18.3184 4.79998 18.0001 4.79998H6.0001ZM12.0001 7.19998C12.1592 7.19998 12.3118 7.26319 12.4244 7.37571C12.5369 7.48823 12.6001 7.64085 12.6001 7.79998V11.4H16.2001C16.3592 11.4 16.5118 11.4632 16.6244 11.5757C16.7369 11.6882 16.8001 11.8408 16.8001 12C16.8001 12.1591 16.7369 12.3117 16.6244 12.4242C16.5118 12.5368 16.3592 12.6 16.2001 12.6H12.6001V16.2C12.6001 16.3591 12.5369 16.5117 12.4244 16.6242C12.3118 16.7368 12.1592 16.8 12.0001 16.8C11.841 16.8 11.6884 16.7368 11.5758 16.6242C11.4633 16.5117 11.4001 16.3591 11.4001 16.2V12.6H7.8001C7.64097 12.6 7.48836 12.5368 7.37583 12.4242C7.26331 12.3117 7.2001 12.1591 7.2001 12C7.2001 11.8408 7.26331 11.6882 7.37583 11.5757C7.48836 11.4632 7.64097 11.4 7.8001 11.4H11.4001V7.79998C11.4001 7.64085 11.4633 7.48823 11.5758 7.37571C11.6884 7.26319 11.841 7.19998 12.0001 7.19998Z" fill="#262626"/>
</svg>
