<svg width="24" height="24" viewBox="0 0 24 24" fill="none" xmlns="http://www.w3.org/2000/svg">
<path d="M11.9998 23.2002C18.1854 23.2002 23.1998 18.1858 23.1998 12.0002C23.1998 5.81458 18.1854 0.800171 11.9998 0.800171C5.81422 0.800171 0.799805 5.81458 0.799805 12.0002C0.799805 18.1858 5.81422 23.2002 11.9998 23.2002Z" fill="#8E8E8E"/>
<path d="M12.0003 13.8C14.5408 13.8 16.6003 11.7405 16.6003 9.19998C16.6003 6.65947 14.5408 4.59998 12.0003 4.59998C9.45986 4.59998 7.40039 6.65947 7.40039 9.19998C7.40039 11.7405 9.45986 13.8 12.0003 13.8Z" fill="white"/>
<path d="M19.9307 19.9082C17.903 21.9416 15.0984 23.1998 11.9999 23.1998C8.9014 23.1998 6.09677 21.9416 4.06909 19.9082C4.99381 16.3927 8.19407 13.7999 11.9999 13.7999C15.8057 13.7999 19.006 16.3927 19.9307 19.9082Z" fill="white"/>
<path d="M22.5998 12.0002C22.5998 17.8544 17.854 22.6002 11.9998 22.6002C6.14559 22.6002 1.3998 17.8544 1.3998 12.0002C1.3998 6.14595 6.14559 1.40017 11.9998 1.40017C17.854 1.40017 22.5998 6.14595 22.5998 12.0002Z" stroke="#8E8E8E" stroke-width="1.2"/>
</svg>
