<svg width="24" height="24" viewBox="0 0 24 24" fill="none" xmlns="http://www.w3.org/2000/svg">
<path d="M12 2.4375C10.1087 2.4375 8.25991 2.99833 6.68736 4.04907C5.11482 5.09981 3.88917 6.59327 3.16541 8.34059C2.44164 10.0879 2.25227 12.0106 2.62125 13.8656C2.99022 15.7205 3.90096 17.4244 5.2383 18.7617C6.57563 20.099 8.27951 21.0098 10.1345 21.3788C11.9894 21.7477 13.9121 21.5584 15.6594 20.8346C17.4067 20.1108 18.9002 18.8852 19.9509 17.3126C21.0017 15.7401 21.5625 13.8913 21.5625 12C21.5597 9.46474 20.5513 7.03414 18.7586 5.24144C16.9659 3.44874 14.5353 2.44035 12 2.4375ZM12 20.4375C10.3312 20.4375 8.69992 19.9426 7.31238 19.0155C5.92484 18.0884 4.84339 16.7706 4.20477 15.2289C3.56616 13.6871 3.39907 11.9906 3.72463 10.3539C4.05019 8.71721 4.85379 7.21379 6.03379 6.03379C7.2138 4.85378 8.71722 4.05019 10.3539 3.72462C11.9906 3.39906 13.6871 3.56615 15.2289 4.20477C16.7706 4.84338 18.0884 5.92484 19.0155 7.31238C19.9427 8.69992 20.4375 10.3312 20.4375 12C20.435 14.237 19.5452 16.3816 17.9634 17.9634C16.3816 19.5452 14.237 20.435 12 20.4375ZM15.9915 7.25306L10.1756 9.89691C10.048 9.95495 9.94668 10.0586 9.89147 10.1874L7.50497 15.7559C7.46071 15.8592 7.44841 15.9735 7.46968 16.0838C7.49094 16.1942 7.54479 16.2957 7.62427 16.3752C7.70376 16.4547 7.80523 16.5085 7.91561 16.5298C8.02599 16.551 8.14021 16.5387 8.24354 16.4945L13.812 14.108C13.9412 14.0526 14.045 13.9508 14.1029 13.8227L16.7368 7.99688C16.7839 7.89263 16.7982 7.77648 16.7776 7.66394C16.757 7.5514 16.7026 7.44781 16.6216 7.367C16.5406 7.28618 16.4369 7.23198 16.3244 7.21162C16.2118 7.19126 16.0957 7.20572 15.9915 7.25306ZM13.1679 13.1601L12 12L10.8396 10.8308L15.0956 8.89612L13.1679 13.1601Z" fill="#262626"/>
</svg>
