<svg width="144" height="56" viewBox="0 0 144 56" fill="none" xmlns="http://www.w3.org/2000/svg">
<path d="M7.41482 8.13867C4.46642 9.34681 1.22434 12.7564 0.201042 17.0449C-1.09725 22.4739 4.30039 24.7666 4.74141 24.0185C5.26033 23.1314 3.77111 22.8336 3.46701 20.0186C3.07573 16.3784 4.79955 12.3113 6.97481 10.5268C7.38057 10.2005 7.36088 10.6609 7.36088 11.5095C7.36088 13.04 7.2737 26.7329 7.2737 29.5917C7.2737 33.4615 7.1118 34.68 6.81292 35.8832C6.51917 37.1068 6.0439 37.932 6.40195 38.2532C6.8077 38.6078 8.53152 37.7633 9.53092 36.3975C10.7265 34.7613 11.1478 32.7948 11.2256 30.6607C11.3138 28.0906 11.3087 24.0043 11.3138 21.6781C11.3138 19.5389 11.3481 13.2849 11.2796 9.51968C11.2599 8.59903 8.64461 7.63456 7.41482 8.13867ZM143.349 28.4545C142.928 28.4545 142.728 28.8864 142.566 29.611C142.008 32.1384 141.42 32.7085 140.66 32.7085C139.814 32.7085 139.054 31.4576 138.854 28.9535C138.702 26.987 138.726 23.3611 138.922 19.7544C138.962 19.0156 138.755 18.2829 136.727 17.5583C135.851 17.2514 134.582 16.791 133.951 18.287C132.163 22.5034 131.468 25.8601 131.301 27.2177C131.297 27.2889 131.208 27.2991 131.193 27.1364C131.091 26.047 130.855 24.0663 130.826 19.9028C130.816 19.0979 130.645 18.4018 129.724 17.8358C129.132 17.4719 127.329 16.8195 126.677 17.5919C126.119 18.2249 125.468 19.9231 124.787 21.9373C124.238 23.5775 123.856 24.6903 123.856 24.6903C123.856 24.6903 123.86 20.2676 123.871 18.5888C123.871 17.9556 123.43 17.7453 123.298 17.7066C122.695 17.5339 121.505 17.2514 121.006 17.2514C120.384 17.2514 120.237 17.5919 120.237 18.0857C120.237 18.1477 120.134 23.9028 120.134 27.9271V28.4931C119.795 30.3448 118.68 32.8579 117.47 32.8579C116.26 32.8579 115.687 31.8071 115.687 27.0114C115.687 24.2147 115.775 22.9973 115.814 20.9729C115.838 19.8072 115.887 18.9109 115.883 18.7046C115.873 18.0857 114.77 17.7687 114.261 17.6538C113.747 17.5339 113.301 17.4953 112.949 17.5095C112.459 17.539 112.112 17.855 112.112 18.2971V18.9678C111.48 17.9902 110.455 17.3083 109.77 17.1121C107.939 16.5797 106.023 17.0542 104.578 19.0298C103.432 20.604 102.741 22.3824 102.472 24.9393C102.271 26.8102 102.335 28.7045 102.692 30.3061C102.262 32.114 101.468 32.8579 100.601 32.8579C99.3372 32.8579 98.4271 30.8427 98.5299 27.3559C98.6036 25.0643 99.0685 23.4576 99.5822 21.1263C99.8033 20.1334 99.6217 19.6162 99.1764 19.1121C98.7696 18.6609 97.8979 18.4261 96.6494 18.7087C95.7621 18.915 94.4845 19.1355 93.3232 19.3042C93.3232 19.3042 93.3917 19.0298 93.4508 18.5461C93.7497 16.0085 90.9332 16.2148 90.0365 17.0258C89.4979 17.5095 89.1305 18.0806 88.9935 19.1071C88.7735 20.7382 90.1299 21.5054 90.1299 21.5054C89.6847 23.5003 88.597 26.109 87.4658 27.9942C86.8628 29.0064 86.402 29.7503 85.8054 30.546C85.7999 30.2533 85.7999 29.9555 85.7999 29.6638C85.7896 25.4668 85.8435 22.1629 85.8684 20.9729C85.8933 19.8072 85.9421 18.9343 85.9421 18.728C85.9318 18.2768 85.6629 18.0999 85.0942 17.8886C84.595 17.6975 84.0025 17.5583 83.3901 17.5095C82.6211 17.4526 82.151 17.855 82.1656 18.3296V18.9678C81.5293 17.9902 80.505 17.3083 79.8294 17.1121C77.9925 16.5797 76.0778 17.0542 74.6331 19.0298C73.4916 20.604 72.7371 22.8052 72.5212 24.9149C72.3261 26.8915 72.3603 28.5602 72.6343 29.9708C72.3406 31.3803 71.5031 32.8579 70.5535 32.8579C69.3434 32.8579 68.6523 31.8071 68.6523 27.0114C68.6523 24.2147 68.7405 22.9973 68.7851 20.9729C68.809 19.8072 68.8536 18.9109 68.8484 18.7046C68.8432 18.0857 67.7421 17.7687 67.2274 17.6538C66.6939 17.5298 66.228 17.4912 65.8751 17.5095C65.405 17.5481 65.0771 17.9556 65.0771 18.2676V18.9678C64.4409 17.9902 63.4166 17.3083 62.7358 17.1121C60.9041 16.5797 59.0038 17.0644 57.5488 19.0298C56.5992 20.3113 55.8302 21.7351 55.4338 24.8916C55.3259 25.8031 55.2719 26.6558 55.277 27.4525C54.8993 29.7157 53.2295 32.3254 51.8679 32.3254C51.0646 32.3254 50.3008 30.8092 50.3008 27.5724C50.3008 23.2656 50.5748 17.1264 50.6236 16.5319C50.6236 16.5319 52.3473 16.5024 52.6857 16.4983C53.5429 16.4932 54.3264 16.5126 55.4681 16.4547C56.0461 16.4262 56.5992 14.4069 56.0015 14.1529C55.7368 14.042 53.8366 13.9414 53.0821 13.9273C52.4459 13.913 50.6869 13.784 50.6869 13.784C50.6869 13.784 50.8446 9.71182 50.8789 9.285C50.9079 8.92014 50.4378 8.73828 50.1638 8.62746C49.5017 8.35002 48.9091 8.21999 48.2138 8.08074C47.2393 7.88463 46.8034 8.0767 46.7204 8.87647C46.5927 10.0909 46.5242 13.6498 46.5242 13.6498C45.8092 13.6498 43.3849 13.5096 42.674 13.5096C42.0139 13.5096 41.2978 16.292 42.2143 16.3256C43.2676 16.3642 45.0942 16.4028 46.3084 16.4353C46.3084 16.4353 46.2544 22.6761 46.2544 24.5989V25.1934C45.584 28.6029 43.2375 30.4454 43.2375 30.4454C43.7419 28.1863 42.7134 26.4931 40.8526 25.0643C40.1667 24.5318 38.8154 23.5288 37.3013 22.4404C37.3013 22.4404 38.1782 21.5918 38.9565 19.8937C39.5056 18.6894 39.5305 17.3042 38.1782 17.0014C35.9449 16.4983 34.108 18.105 33.5548 19.8215C33.1335 21.1456 33.3545 22.1334 34.191 23.1548L34.3819 23.3855C33.8828 24.3346 33.1874 25.6151 32.6042 26.608C30.9738 29.3661 29.744 31.5439 28.8183 31.5439C28.0742 31.5439 28.0835 29.3326 28.0835 27.2604C28.0835 25.4759 28.2205 22.7859 28.3285 20.0044C28.3627 19.0877 27.8926 18.5603 27.1049 18.0857C26.6243 17.7981 25.6052 17.2321 25.0127 17.2321C24.1316 17.2321 21.5744 17.3469 19.1605 24.1812C18.8564 25.045 18.2586 26.6131 18.2586 26.6131L18.3126 18.3926C18.3126 18.2005 18.2099 18.0187 17.9701 17.8886C17.5633 17.6731 16.4715 17.2321 15.5115 17.2321C15.0456 17.2321 14.8152 17.4435 14.8152 17.8601L14.7373 30.7137C14.7373 31.6923 14.7612 32.8335 14.8598 33.3325C14.9574 33.8315 15.1193 34.239 15.3154 34.4829C15.5116 34.7187 15.7409 34.9006 16.1135 34.9819C16.4611 35.054 18.3759 35.2888 18.4745 34.5744C18.5969 33.7156 18.6011 32.7909 19.6057 29.3234C21.1727 23.9322 23.211 21.3042 24.171 20.3682C24.3422 20.2056 24.5332 20.1955 24.5228 20.4648C24.4792 21.6487 24.3371 24.5989 24.2395 27.107C23.98 33.8264 25.2233 35.0683 27.0115 35.0683C28.3731 35.0683 30.293 33.74 32.3551 30.3833C33.643 28.2869 34.8873 26.2391 35.7882 24.7574C36.4057 25.3224 37.1103 25.9322 37.8108 26.5846C39.4422 28.0948 39.9757 29.5338 39.6187 30.8966C39.3488 31.9412 38.3256 33.0155 36.5084 31.9707C35.9791 31.6679 35.7539 31.4332 35.2205 31.0876C34.9361 30.9006 34.495 30.8478 34.2356 31.0399C33.5496 31.5439 33.1625 32.1811 32.9373 32.9728C32.7266 33.7451 33.5154 34.1476 34.3331 34.5022C35.0336 34.8142 36.5426 35.0876 37.5068 35.1211C41.2636 35.2461 44.2711 33.3467 46.3623 28.4545C46.7401 32.6801 48.331 35.0734 51.0989 35.0734C52.9544 35.0734 54.8111 32.7278 55.6247 30.421C55.8541 31.361 56.2017 32.176 56.648 32.8722C58.7838 36.1811 62.9267 35.4717 65.0033 32.6608C65.6499 31.7878 65.7485 31.4759 65.7485 31.4759C66.0515 34.1293 68.2361 35.0632 69.4856 35.0632C70.8908 35.0632 72.3313 34.4118 73.3442 32.176C73.4667 32.421 73.5943 32.6516 73.7417 32.8722C75.8723 36.1811 80.0152 35.4717 82.0971 32.6608C82.1905 32.5216 82.2787 32.4067 82.3513 32.296L82.4156 34.0418C82.4156 34.0418 81.2253 35.1069 80.4958 35.7634C77.2879 38.6465 74.848 40.8335 74.6674 43.3751C74.4422 46.622 77.126 47.8263 79.1632 47.9838C81.3187 48.1525 83.1702 46.9868 84.3055 45.3466C85.3049 43.9076 85.9618 40.8142 85.9131 37.7542C85.8934 36.5266 85.8633 34.9728 85.8342 33.299C86.9654 32.0236 88.2388 30.4016 89.4052 28.5033C90.6828 26.4403 92.0444 23.6629 92.7397 21.5003C92.7397 21.5003 93.9301 21.5105 95.1942 21.4333C95.6009 21.4089 95.7182 21.4912 95.6394 21.7788C95.5511 22.1284 94.0432 27.8315 95.4193 31.6303C96.3648 34.2289 98.485 35.0683 99.7491 35.0683C101.223 35.0683 102.634 33.9748 103.388 32.3539C103.481 32.5317 103.574 32.7085 103.682 32.8722C105.813 36.1811 109.941 35.4667 112.038 32.6608C112.513 32.0236 112.778 31.4759 112.778 31.4759C113.228 34.2248 115.413 35.0734 116.661 35.0734C117.969 35.0734 119.203 34.551 120.207 32.2289C120.247 33.2512 120.31 34.0856 120.418 34.3488C120.481 34.5124 120.854 34.7136 121.118 34.8142C122.313 35.2461 123.528 35.0398 123.973 34.9484C124.287 34.8863 124.532 34.6466 124.562 34.0134C124.649 32.3539 124.595 29.5673 125.11 27.4911C125.976 24.0186 126.78 22.6711 127.162 22.0044C127.373 21.6294 127.617 21.5674 127.622 21.9607C127.637 22.7615 127.682 25.1121 128.019 28.2777C128.26 30.5988 128.588 31.9748 128.842 32.4118C129.557 33.6537 130.448 33.7116 131.169 33.7116C131.629 33.7116 132.589 33.5866 132.505 32.7949C132.462 32.4118 132.535 30.0277 133.382 26.604C133.941 24.3641 134.866 22.3449 135.199 21.606C135.327 21.3327 135.381 21.544 135.381 21.5867C135.307 23.1263 135.151 28.1669 135.787 30.9199C136.66 34.6567 139.171 35.0734 140.048 35.0734C141.914 35.0734 143.448 33.6821 143.962 30.0186C144.089 29.1354 143.903 28.4545 143.349 28.4545ZM65.0376 26.1912C64.9348 28.1283 64.5477 29.7502 63.9312 30.9249C62.8042 33.0591 60.5864 33.7308 59.6109 30.6567C58.9011 28.4362 59.1408 25.4047 59.4397 23.7685C59.8703 21.3417 60.9632 19.6253 62.6672 19.7828C64.4107 19.9515 65.2628 22.1527 65.0376 26.1912ZM82.1263 26.2197C82.0286 28.0469 81.544 29.8884 81.0148 30.9249C79.923 33.0733 77.6398 33.745 76.6944 30.6567C76.0489 28.5408 76.2003 25.8122 76.5231 24.0948C76.9403 21.86 77.9438 19.7828 79.7517 19.7828C81.5098 19.7828 82.3763 21.673 82.1263 26.2197ZM82.5725 38.7084C82.5476 42.0519 82.0142 44.9776 80.8673 45.8313C79.2318 47.0396 77.0327 46.1281 77.4883 43.6921C77.8899 41.5336 79.7953 39.3324 82.5777 36.6414C82.5777 36.6414 82.5873 37.2551 82.5725 38.7084ZM112.077 26.239C111.979 28.2491 111.523 29.8173 110.961 30.9249C109.868 33.0733 107.605 33.7399 106.64 30.6567C106.116 28.9728 106.091 26.1618 106.469 23.8173C106.851 21.4281 107.924 19.6253 109.697 19.7828C111.449 19.9464 112.268 22.1527 112.077 26.239Z" fill="#231E1F"/>
</svg>
