<svg width="24" height="24" viewBox="0 0 24 24" fill="none" xmlns="http://www.w3.org/2000/svg">
<path d="M12 3C7.0575 3 3 6.85275 3 11.625C3 14.1675 4.1775 16.4265 6 18V21.4688L9.3285 19.8045C10.1745 20.0595 11.0595 20.25 12 20.25C16.9425 20.25 21 16.3973 21 11.625C21 6.85275 16.9425 3 12 3ZM12 4.5C16.1693 4.5 19.5 7.6995 19.5 11.625C19.5 15.5505 16.1693 18.75 12 18.75C11.1038 18.75 10.248 18.5798 9.4455 18.3045L9.141 18.2108L7.5 19.0312V17.3438L7.21875 17.109C5.5545 15.7972 4.5 13.8315 4.5 11.625C4.5 7.6995 7.83075 4.5 12 4.5ZM11.1562 9.258L6.633 14.0392L10.6875 11.7892L12.8438 14.1097L17.3205 9.25725L13.359 11.4847L11.1562 9.258Z" fill="#262626"/>
</svg>
