<svg width="16" height="16" viewBox="0 0 16 16" fill="none" xmlns="http://www.w3.org/2000/svg">
<path d="M6.66659 12C7.8499 11.9998 8.99912 11.6037 9.93125 10.8747L12.8619 13.8054L13.8046 12.8627L10.8739 9.93204C11.6033 8.99982 11.9996 7.85033 11.9999 6.66671C11.9999 3.72604 9.60725 1.33337 6.66659 1.33337C3.72592 1.33337 1.33325 3.72604 1.33325 6.66671C1.33325 9.60737 3.72592 12 6.66659 12ZM6.66659 2.66671C8.87259 2.66671 10.6666 4.46071 10.6666 6.66671C10.6666 8.87271 8.87259 10.6667 6.66659 10.6667C4.46059 10.6667 2.66659 8.87271 2.66659 6.66671C2.66659 4.46071 4.46059 2.66671 6.66659 2.66671Z" fill="#8E8E8E"/>
</svg>
